# xmcd CD database file
#
# Track frame offsets:
#	150
#	15002
#	26936
#	41368
#	56058
#	69417
#	78739
#	92309
#	108109
#	117979
#	132042
#	145956
#	156016
#	167933
#	177836
#
# Disc length: 2528 seconds
#
# Revision: 0
# Processed by: cddbd v1.5.2PL0 Copyright (c) Steve Scherf et al.
# Submitted via: CDex 1.70beta2
#
DISCID=b909de0f
DTITLE=Lauren Hall - Traditional Country Music
DYEAR=1900
DGENRE=Country
TTITLE0=Down At The Twist and Shout
TTITLE1=He Thinks I Still Care
TTITLE2=Crying Time
TTITLE3=Don't Worry'Bout Me
TTITLE4=Rose Garden
TTITLE5=Walkin' After Midnight
TTITLE6=Rocky Top
TTITLE7=You Look So Good In Love
TTITLE8=Snowbird
TTITLE9=Tennessee Flat Top Box
TTITLE10=Coal Miner's Daughter
TTITLE11=You Ain't Woman Enough
TTITLE12=Before The Next Teardrop Falls
TTITLE13=Back In My Baby's Arms
TTITLE14=Sweet Dreams
EXTD=
EXTT0=
EXTT1=
EXTT2=
EXTT3=
EXTT4=
EXTT5=
EXTT6=
EXTT7=
EXTT8=
EXTT9=
EXTT10=
EXTT11=
EXTT12=
EXTT13=
EXTT14=
PLAYORDER=
